# Blender 4.2.2 LTS
# www.blender.org
mtllib tent.mtl
o Circle
v -0.006054 0.028916 -0.830185
v -0.427912 0.028916 -0.721896
v -0.736734 0.028916 -0.426045
v -0.849771 0.028916 -0.021906
v -0.736734 0.028916 0.382233
v -0.427912 0.028916 0.678083
v -0.006054 0.028916 0.786372
v 0.415805 0.028916 0.678083
v 0.724627 0.028916 0.382233
v 0.837663 0.028916 -0.021906
v 0.724627 0.028916 -0.426045
v 0.415805 0.028916 -0.721896
v -0.006054 0.976103 -1.021906
v -0.506054 0.976103 -0.887932
v -0.872079 0.976103 -0.521906
v -1.006054 0.976103 -0.021906
v -0.872079 0.976103 0.478094
v -0.506054 0.976103 0.844119
v -0.006054 0.976103 0.978094
v 0.493946 0.976103 0.844119
v 0.859972 0.976103 0.478094
v 0.993946 0.976103 -0.021906
v 0.859972 0.976103 -0.521906
v 0.493946 0.976103 -0.887932
v -0.006054 2.168252 -0.021906
v -0.006054 -0.995336 -1.151884
v -0.561016 -0.995336 -1.000495
v -0.967276 -0.995336 -0.586895
v -1.115978 -0.995336 -0.021906
v -0.967276 -0.995336 0.543083
v -0.561016 -0.995336 0.956683
v -0.006054 -0.008082 0.864480
v 0.548908 -0.995336 0.956683
v 0.955169 -0.995336 0.543083
v 1.103871 -0.995336 -0.021906
v 0.955169 -0.995336 -0.586895
v 0.548908 -0.995336 -1.000495
v -0.002628 0.578712 -1.021906
v -0.502628 0.578712 -0.887931
v -0.868653 0.578712 -0.521906
v -1.002628 0.578712 -0.021906
v -0.868653 0.578712 0.478094
v -0.502628 0.578712 0.844119
v -0.002628 0.578712 0.978094
v 0.497372 0.578712 0.844119
v 0.863397 0.578712 0.478094
v 0.997372 0.578712 -0.021906
v 0.863397 0.578712 -0.521906
v 0.497372 0.578712 -0.887931
vn 0.9511 -0.1569 -0.2660
vn 0.2540 -0.1919 0.9480
vn -0.9511 -0.1569 0.2660
vn 0.6818 -0.1694 -0.7117
vn -0.2540 -0.1919 -0.9480
vn 0.6956 -0.1793 0.6956
vn -0.6818 -0.1694 0.7117
vn 0.2443 -0.1869 -0.9515
vn -0.6956 -0.1793 -0.6956
vn 0.9532 -0.1620 0.2554
vn -0.2443 -0.1869 0.9515
vn -0.9532 -0.1620 -0.2554
vn -0.5494 0.6295 0.5494
vn 0.2011 0.6295 -0.7505
vn -0.5494 0.6295 -0.5494
vn 0.7505 0.6295 0.2011
vn -0.2011 0.6295 0.7505
vn -0.7505 0.6295 -0.2011
vn 0.7505 0.6295 -0.2011
vn 0.2011 0.6295 0.7505
vn -0.7505 0.6295 0.2011
vn 0.5494 0.6295 -0.5494
vn -0.2011 0.6295 -0.7505
vn 0.5494 0.6295 0.5494
vn 0.9365 0.2495 -0.2465
vn 0.2384 0.2836 0.9288
vn -0.9365 0.2495 0.2465
vn 0.6864 0.2726 -0.6742
vn -0.2384 0.2836 -0.9288
vn 0.6680 0.2599 0.6973
vn -0.6864 0.2726 0.6742
vn 0.2519 0.2900 -0.9233
vn -0.6680 0.2599 -0.6973
vn 0.9342 0.2428 0.2613
vn -0.8381 0.4929 0.2335
vn -0.9342 0.2428 -0.2613
vn 0.9659 0.0083 -0.2588
vn 0.2588 0.0022 0.9659
vn -0.9659 -0.0083 0.2588
vn 0.7071 0.0061 -0.7071
vn -0.2588 -0.0022 -0.9659
vn 0.7071 0.0061 0.7071
vn -0.7071 -0.0061 0.7071
vn 0.2588 0.0022 -0.9659
vn -0.7071 -0.0061 -0.7071
vn 0.9659 0.0083 0.2588
vn -0.2588 -0.0022 0.9659
vn -0.9659 -0.0083 -0.2588
vn -0.2384 0.2836 0.9288
vn 0.8381 0.4929 0.2335
vn 0.9532 -0.1620 -0.2554
vn 0.2443 -0.1869 0.9515
vn -0.9532 -0.1620 0.2554
vn 0.6956 -0.1793 -0.6956
vn -0.2443 -0.1869 -0.9515
vn 0.6818 -0.1694 0.7117
vn -0.6956 -0.1793 0.6956
vn 0.2540 -0.1919 -0.9480
vn -0.6818 -0.1694 -0.7117
vn 0.9511 -0.1569 0.2660
vn -0.2540 -0.1919 0.9480
vn -0.9511 -0.1569 -0.2660
vn 0.9342 0.2428 -0.2613
vn -0.9342 0.2428 0.2613
vn 0.6680 0.2599 -0.6973
vn -0.2519 0.2900 -0.9233
vn 0.6864 0.2726 0.6742
vn -0.6680 0.2599 0.6973
vn 0.2384 0.2836 -0.9288
vn -0.6864 0.2726 -0.6742
vn 0.9365 0.2495 0.2465
vn -0.9365 0.2495 -0.2465
vt 0.241582 0.524159
vt 0.011013 0.998462
vt 0.013515 0.528023
vt 0.513677 0.517274
vt 0.749848 0.986925
vt 0.496179 0.990583
vt 0.241582 0.524159
vt 0.011013 0.998462
vt 0.033668 0.523373
vt 0.771839 0.514069
vt 0.554097 0.947254
vt 0.561019 0.512363
vt 0.595119 0.550545
vt 0.834161 0.981225
vt 0.579941 0.982829
vt 0.069172 0.523370
vt 0.299316 0.995310
vt 0.044153 0.998330
vt 0.750137 0.526471
vt 0.552547 0.986009
vt 0.557918 0.521664
vt 0.241054 0.525742
vt 0.008213 0.998277
vt 0.027154 0.524819
vt 0.052120 0.524921
vt 0.282264 0.996860
vt 0.027101 0.999880
vt 0.708500 0.527260
vt 0.939069 1.001562
vt 0.682608 1.002980
vt 0.236288 0.526575
vt 0.000116 0.996226
vt 0.022848 0.523924
vt 0.568982 0.510207
vt 0.689487 0.969008
vt 0.533790 0.971976
vt 0.774473 0.010011
vt 0.976493 0.012521
vt 0.883481 0.720691
vt 0.127853 0.054807
vt 0.466898 0.068328
vt 0.378537 0.776725
vt 0.117190 0.061167
vt 0.368816 0.018722
vt 0.368816 0.785799
vt 0.950202 0.003221
vt 0.546283 0.000120
vt 0.754443 0.775818
vt 0.254018 0.042314
vt 0.504179 0.000116
vt 0.324356 0.824735
vt 0.717673 0.020273
vt 0.989639 0.007871
vt 0.838154 0.744814
vt 0.289818 0.000120
vt 0.400564 0.003221
vt 0.337440 0.754115
vt 0.750081 0.033013
vt 0.583239 0.007867
vt 1.000242 0.753426
vt 0.299120 0.003221
vt 0.499777 0.006321
vt 0.418051 0.760316
vt 0.743469 0.173742
vt 0.995095 0.216187
vt 0.743469 0.940819
vt 0.740181 0.155139
vt 0.990864 0.197425
vt 0.740181 0.919343
vt 0.303213 -0.001430
vt 0.501037 0.000120
vt 0.430804 0.754961
vt 0.000120 0.000120
vt 0.227570 0.001671
vt 0.727117 0.514622
vt 0.749848 -0.009185
vt 0.000120 0.000120
vt 0.289578 0.000120
vt 0.555090 0.031124
vt 0.840892 0.031124
vt 0.828303 0.041975
vt 0.809020 0.549622
vt 0.302973 -0.001430
vt 0.279993 0.521664
vt 0.555090 0.007871
vt 0.752531 0.012521
vt 0.000119 0.000119
vt 0.282634 0.000119
vt 0.285921 0.000120
vt 0.262941 0.523214
vt 0.949961 0.003221
vt 0.916414 0.526473
vt 0.706915 0.948818
vt 0.720867 0.153495
vt 0.770352 0.911883
vt 0.717432 0.020273
vt 0.676134 0.507871
vt 0.459732 0.977426
vt 0.275239 0.726052
vt 0.459732 0.720962
vt 0.778234 0.009489
vt 0.583472 0.261562
vt 0.583472 0.007867
vt 0.469033 0.736903
vt 0.272139 0.992928
vt 0.272139 0.736464
vt 0.733932 0.255301
vt 0.538027 0.001314
vt 0.733932 0.000120
vt 0.533795 0.001744
vt 0.728964 0.254344
vt 0.533795 0.255970
vt 0.449151 0.722155
vt 0.253245 0.976142
vt 0.253245 0.720961
vt 0.974213 0.734557
vt 0.778307 0.988543
vt 0.778307 0.733363
vt 0.202053 0.634224
vt 0.398772 0.872873
vt 0.203603 0.874498
vt 0.450247 0.937387
vt 0.254341 0.683400
vt 0.450247 0.682206
vt 0.546524 0.256585
vt 0.743418 0.000560
vt 0.743418 0.257024
vt 0.483697 0.007939
vt 0.191272 0.239860
vt 0.189722 0.009418
vt 0.988349 0.988277
vt 0.814708 0.760156
vt 0.985249 0.756616
vt 0.000116 0.000116
vt 0.061912 0.069784
vt 0.091366 0.962770
vt 0.027929 0.925835
vt 0.267473 0.999880
vt 0.267473 0.999880
vt 0.809260 0.950274
vt 0.756553 0.985928
vt 0.262433 0.999881
vt 0.253785 0.999884
vt 0.569041 0.037324
vt 0.017172 -0.001430
vt 0.000120 0.000120
vt 0.660504 0.003221
vt 0.528737 0.021823
vt 0.278340 0.984066
vt 0.948755 0.278686
vt 0.469033 0.993367
vt 0.538027 0.256495
vt 0.728964 0.000119
vt 0.449151 0.977336
vt 0.974213 0.989738
vt 0.406523 0.638800
vt 0.254341 0.938581
vt 0.546524 0.000120
vt 0.469745 0.239931
vt 0.816258 0.987166
s 0
usemtl Material.001
f 11/1/1 22/2/1 10/3/1
f 7/4/2 20/5/2 19/6/2
f 5/7/3 16/8/3 4/9/3
f 12/10/4 23/11/4 11/12/4
f 1/13/5 14/14/5 13/15/5
f 8/16/6 21/17/6 20/18/6
f 6/19/7 17/20/7 5/21/7
f 1/22/8 24/23/8 12/24/8
f 2/25/9 15/26/9 14/27/9
f 9/28/10 22/29/10 21/30/10
f 7/31/11 18/32/11 6/33/11
f 3/34/12 16/35/12 15/36/12
f 17/37/13 18/38/13 25/39/13
f 24/40/14 13/41/14 25/42/14
f 14/43/15 15/44/15 25/45/15
f 21/46/16 22/47/16 25/48/16
f 18/49/17 19/50/17 25/51/17
f 15/52/18 16/53/18 25/54/18
f 22/55/19 23/56/19 25/57/19
f 19/58/20 20/59/20 25/60/20
f 16/61/21 17/62/21 25/63/21
f 23/64/22 24/65/22 25/66/22
f 13/67/23 14/68/23 25/69/23
f 20/70/24 21/71/24 25/72/24
f 11/1/25 35/73/25 36/74/25
f 8/75/26 7/4/26 33/76/26
f 5/7/27 29/77/27 30/78/27
f 12/10/28 36/79/28 37/80/28
f 1/13/29 27/81/29 2/82/29
f 8/16/30 34/83/30 9/84/30
f 6/19/31 30/85/31 31/86/31
f 1/22/32 37/87/32 26/88/32
f 2/25/33 28/89/33 3/90/33
f 9/28/34 35/91/34 10/92/34
f 7/93/35 31/94/35 32/95/35
f 3/34/36 29/96/36 4/97/36
f 22/98/37 48/99/37 23/100/37
f 20/101/38 44/102/38 45/103/38
f 17/104/39 41/105/39 42/106/39
f 23/107/40 49/108/40 24/109/40
f 13/110/41 39/111/41 14/112/41
f 21/113/42 45/114/42 46/115/42
f 18/116/43 42/117/43 43/118/43
f 24/119/44 38/120/44 13/121/44
f 14/122/45 40/123/45 15/124/45
f 22/125/46 46/126/46 47/127/46
f 19/128/47 43/129/47 44/130/47
f 15/131/48 41/132/48 16/133/48
f 31/134/49 7/31/49 6/33/49
f 33/135/50 7/136/50 32/137/50
f 11/1/51 23/138/51 22/2/51
f 7/4/52 8/75/52 20/5/52
f 5/7/53 17/139/53 16/8/53
f 12/10/54 24/140/54 23/11/54
f 1/13/55 2/82/55 14/14/55
f 8/16/56 9/84/56 21/17/56
f 6/19/57 18/141/57 17/20/57
f 1/22/58 13/142/58 24/23/58
f 2/25/59 3/90/59 15/26/59
f 9/28/60 10/92/60 22/29/60
f 7/31/61 19/143/61 18/32/61
f 3/34/62 4/97/62 16/35/62
f 11/1/63 10/3/63 35/73/63
f 5/7/64 4/9/64 29/77/64
f 12/10/65 11/12/65 36/79/65
f 1/13/66 26/144/66 27/81/66
f 8/16/67 33/145/67 34/83/67
f 6/19/68 5/21/68 30/85/68
f 1/22/69 12/24/69 37/87/69
f 2/25/70 27/146/70 28/89/70
f 9/28/71 34/147/71 35/91/71
f 3/34/72 28/148/72 29/96/72
f 22/98/37 47/149/37 48/99/37
f 20/101/38 19/150/38 44/102/38
f 17/104/39 16/151/39 41/105/39
f 23/107/40 48/152/40 49/108/40
f 13/110/41 38/153/41 39/111/41
f 21/113/42 20/154/42 45/114/42
f 18/116/43 17/155/43 42/117/43
f 24/119/44 49/156/44 38/120/44
f 14/122/45 39/157/45 40/123/45
f 22/125/46 21/158/46 46/126/46
f 19/128/47 18/159/47 43/129/47
f 15/131/48 40/160/48 41/132/48
